<svg width="90" height="91" viewBox="0 0 90 91" fill="none" xmlns="http://www.w3.org/2000/svg">
<path d="M44.5314 24.4597C31.6434 25.2928 16.5583 33.5812 0 55.2249C0 33.0103 3.90363 -8.80533 19.5182 1.64859C25.7842 5.84372 34.9113 14.6629 44.5314 24.4597C74.1805 22.543 92.2021 60.0819 89.7835 65.2432C87.4276 70.2708 64.8769 45.1788 44.5314 24.4597Z" fill="white"/>
<path d="M16.7841 74.0322C16.7841 69.6832 13.7094 67.5416 9.51061 67.5416H0.121225V90.6046H10.4694C14.9657 90.6046 17.809 87.9359 17.809 83.8175C17.809 81.2147 16.4865 79.3038 14.0731 78.4801C15.8914 77.5905 16.7841 75.9761 16.7841 74.0322ZM9.24612 70.8693C11.4943 70.8693 13.0151 71.8577 13.0151 74.1311C12.982 76.3715 11.4612 77.2281 9.24612 77.2281H3.95633V70.8693H9.24612ZM9.80816 80.3581C10.8661 80.3581 11.9241 80.424 12.8167 81.0829C13.6102 81.7419 14.0069 82.6644 14.0069 83.8175C13.9078 86.025 12.3869 87.244 10.238 87.244H3.95633V80.3581H9.80816Z" fill="white"/>
<path d="M30.5688 87.9359C30.668 91.0659 32.6186 91.0659 35.1313 90.6376L35.0651 88.5949C33.3459 88.7596 33.4121 87.8041 33.4121 86.3215V80.0615C33.4121 75.6796 29.9737 74.3287 26.1055 74.3287C23.9896 74.3287 21.8406 74.7571 20.2206 75.5807L20.7496 78.1506C22.7333 77.1622 29.9076 75.7784 29.9076 79.9627V81.5442C28.4859 80.7534 26.7337 80.3581 25.1798 80.3581C21.6753 80.3581 18.8982 82.1702 18.9974 85.9591C18.9974 89.0561 21.8076 90.9012 24.717 90.9012C26.9651 90.9012 29.5108 90.0445 30.5688 87.9359ZM29.9076 85.1684C29.5439 87.1781 27.3288 88.0677 25.4443 88.0677C23.9896 88.0677 22.5349 87.3429 22.5349 85.7614C22.5349 83.8175 24.0227 82.7962 25.7749 82.7632C27.1966 82.7303 28.7174 83.1586 29.9076 83.8505V85.1684Z" fill="white"/>
<path d="M40.779 77.0304C40.6137 74.4605 38.035 74.0652 35.6876 74.5923L35.7207 77.0304C37.4399 76.9316 37.4398 77.6564 37.4398 79.0731V90.6046H41.0105V81.4124C41.0105 78.8425 42.928 77.4587 45.077 77.4587C46.2341 77.4587 47.2921 77.7882 48.2509 78.4142L49.1435 75.3172C48.1186 74.5594 46.7962 74.164 45.4737 74.197C43.5231 74.197 41.4072 75.1854 40.779 77.0304Z" fill="white"/>
<path d="M50.008 69.815C50.008 71.2647 51.1321 71.9895 52.2231 71.9566C53.2811 71.9236 54.339 71.2317 54.339 69.815C54.339 68.4312 53.2811 67.7064 52.1901 67.7064C51.099 67.7064 50.008 68.3983 50.008 69.815ZM53.9754 74.8888H50.3717V90.6046H53.9754V74.8888Z" fill="white"/>
<path d="M56.089 85.9261C56.3535 89.8798 59.8579 91 63.3955 91C66.933 91 70.3384 89.4844 70.3384 85.9591C70.3384 82.2031 67.0984 81.643 63.7592 81.2147C61.2796 80.9182 59.9902 80.6217 59.9571 79.3038C59.8579 77.887 61.5771 77.0963 63.2302 77.0963C64.9163 77.0963 66.8339 77.5905 66.8339 79.172H70.0077C70.1069 76.0091 66.9 74.3946 63.2302 74.3946C59.7588 74.3946 56.4526 75.9761 56.4526 79.3697C56.5518 82.9609 60.2216 83.3233 63.4947 83.7516C65.5775 84.0152 67.0653 84.4435 67.0653 85.8932C66.9661 87.8371 65.0155 88.3313 63.2633 88.3313C61.5441 88.3313 59.7257 87.5735 59.6265 85.9261H56.089Z" fill="white"/>
<path d="M88.3505 82.5985C88.3505 77.0304 84.0526 74.2628 79.7877 74.3287C75.6219 74.3946 71.5224 77.1293 71.5224 82.5985C71.5224 88.1336 75.7211 90.9012 79.9199 90.9012C84.1187 90.9012 88.3505 88.1336 88.3505 82.5985ZM75.093 82.5985C75.093 79.2379 77.4073 77.5576 79.7877 77.4917C82.2342 77.4258 84.7468 79.139 84.7468 82.5985C84.7468 85.992 82.3664 87.7053 79.986 87.7382C77.5395 87.7712 75.093 86.0579 75.093 82.5985Z" fill="white"/>
</svg>
