<svg xmlns="http://www.w3.org/2000/svg" viewBox="0 0 657.99 1215.94"><defs><style>.cls-1{fill:#1d1d1b;}</style></defs><g id="Layer_2" data-name="Layer 2"><g id="Pattern_Editing_Mode" data-name="Pattern Editing Mode"><path class="cls-1" d="M658,363.27,543.7,511.46,287.47,843.7,32.65,1174.13q-15,19.44-30,38.88A10.09,10.09,0,0,1,0,1215.94a7.46,7.46,0,0,1,.9-3.3Q100.45,942.72,200,672.81q11.85-32.13,23.68-64.24c.16-.42.31-.83.45-1.24.87-2.54.87-2.57-1.71-2.67-5.16-.2-10.32-.39-15.48-.54-17.91-.54-35.81-1-53.72-1.61Q114.84,601.3,76.45,600l-55.35-1.8a4,4,0,0,1-2.24-.36c-.12-1.32.68-2.31,1.18-3.38Q122.85,375,225.68,155.55L296.78,3.78a5.59,5.59,0,0,0,.43-.89c.61-2.26,2-2.92,4.37-2.89,9.89.15,19.78.07,29.68.09L574.58.65h4.19c-6.49,17.7-13.14,34.93-19.65,52.21s-13,34.49-19.54,51.73l-19.64,52q-9.77,25.86-19.56,51.72-9.84,26-19.67,52-9.78,25.86-19.52,51.74c-6.54,17.32-13.09,34.64-19.69,52.11a13,13,0,0,0,4.51.31q87-.72,174.08-1.49c12.63-.11,25.27-.3,37.9-.46Z"/></g></g></svg>